<svg width="100" height="38" viewBox="0 0 100 38" fill="none" xmlns="http://www.w3.org/2000/svg">
<path d="M0.513672 37V0.636363H16.2097C18.9086 0.636363 21.2701 1.1276 23.2942 2.11008C25.3184 3.09257 26.8927 4.5071 28.0172 6.35369C29.1417 8.20028 29.704 10.4138 29.704 12.9943C29.704 15.5985 29.124 17.7943 27.964 19.5817C26.8158 21.3691 25.2 22.7185 23.1167 23.63C21.0452 24.5414 18.6245 24.9972 15.8546 24.9972H6.47958V17.3267H13.8659C15.026 17.3267 16.0144 17.1847 16.8311 16.9006C17.6597 16.6046 18.293 16.1371 18.731 15.4979C19.1808 14.8587 19.4057 14.0241 19.4057 12.9943C19.4057 11.9527 19.1808 11.1063 18.731 10.4553C18.293 9.79238 17.6597 9.30705 16.8311 8.99929C16.0144 8.67969 15.026 8.51988 13.8659 8.51988H10.3858V37H0.513672ZM21.8205 20.3097L30.9114 37H20.187L11.3091 20.3097H21.8205ZM68.7754 37V0.636363H84.4714C87.1703 0.636363 89.5318 1.1276 91.5559 2.11008C93.5801 3.09257 95.1544 4.5071 96.2789 6.35369C97.4035 8.20028 97.9657 10.4138 97.9657 12.9943C97.9657 15.5985 97.3857 17.7943 96.2257 19.5817C95.0775 21.3691 93.4617 22.7185 91.3784 23.63C89.3069 24.5414 86.8862 24.9972 84.1163 24.9972H74.7413V17.3267H82.1277C83.2877 17.3267 84.2761 17.1847 85.0929 16.9006C85.9215 16.6046 86.5547 16.1371 86.9927 15.4979C87.4425 14.8587 87.6674 14.0241 87.6674 12.9943C87.6674 11.9527 87.4425 11.1063 86.9927 10.4553C86.5547 9.79238 85.9215 9.30705 85.0929 8.99929C84.2761 8.67969 83.2877 8.51988 82.1277 8.51988H78.6475V37H68.7754ZM90.0822 20.3097L99.1731 37H88.4487L79.5708 20.3097H90.0822Z" fill="white"/>
<path d="M45.7729 37.5682C43.1687 37.5682 40.9256 37.1065 39.0435 36.1832C37.1614 35.2599 35.7173 34.023 34.7111 32.4723C33.705 30.9216 33.2019 29.2112 33.2019 27.3409C33.2019 25.9796 33.4623 24.7782 33.9831 23.7365C34.504 22.683 35.2319 21.7183 36.1671 20.8423C37.1022 19.9664 38.1971 19.1023 39.4519 18.25L47.6905 13.1364C48.5191 12.6155 49.0814 12.0769 49.3773 11.5206C49.6732 10.9524 49.8212 10.4493 49.8212 10.0114C49.8212 9.43134 49.6081 8.91643 49.182 8.46662C48.7559 8.01681 48.093 7.79782 47.1934 7.80966C46.637 7.80966 46.1576 7.91619 45.7551 8.12926C45.3527 8.33049 45.039 8.61458 44.8141 8.98153C44.601 9.34848 44.4945 9.78646 44.4945 10.2955C44.4945 10.9938 44.6957 11.71 45.0982 12.4439C45.5007 13.166 46.0511 13.9472 46.7495 14.7876C47.4479 15.6281 48.235 16.5691 49.111 17.6108L66.7246 37H56.9235L42.1507 21.375C41.4287 20.6056 40.6297 19.6645 39.7537 18.5518C38.8778 17.4273 38.1202 16.1607 37.481 14.7521C36.8536 13.3435 36.54 11.8106 36.54 10.1534C36.54 8.30682 36.9838 6.62003 37.8716 5.09304C38.7594 3.56605 40.0023 2.34683 41.6003 1.43537C43.1983 0.52391 45.0627 0.0681813 47.1934 0.0681813C49.2293 0.0681813 50.9812 0.488399 52.449 1.32883C53.9287 2.16927 55.065 3.28788 55.8581 4.68466C56.6631 6.08144 57.0655 7.62026 57.0655 9.30113C57.0655 10.9938 56.6453 12.5741 55.8049 14.0419C54.9763 15.5097 53.7866 16.794 52.236 17.8949L44.7076 23.2216C44.1275 23.6241 43.6245 24.0857 43.1983 24.6065C42.784 25.1274 42.5769 25.8021 42.5769 26.6307C42.5769 27.3172 42.7367 27.9032 43.0563 28.3885C43.3759 28.8738 43.8257 29.2467 44.4057 29.5071C44.9976 29.7675 45.69 29.8977 46.4831 29.8977C47.6905 29.8977 48.8979 29.6077 50.1053 29.0277C51.3245 28.4358 52.4372 27.6132 53.4434 26.5597C54.4495 25.4943 55.2544 24.2396 55.8581 22.7955C56.4737 21.3395 56.7814 19.7533 56.7814 18.0369H64.5229C64.5229 20.1439 64.3039 22.174 63.8659 24.1271C63.428 26.0803 62.7237 27.8677 61.753 29.4893C60.7824 31.111 59.504 32.4782 57.9178 33.5909C57.4206 33.8395 56.9353 34.0762 56.4618 34.3011C55.9883 34.526 55.503 34.7628 55.0059 35.0114C53.5499 35.9465 52.0288 36.6094 50.4426 37C48.8565 37.3788 47.2999 37.5682 45.7729 37.5682Z" fill="#DC2F02"/>
</svg>
