<svg width="54" height="53" viewBox="0 0 54 53" fill="none" xmlns="http://www.w3.org/2000/svg">
<path d="M22.746 44.9932C27.7905 44.9922 32.6896 43.3308 36.6633 40.2735L49.1567 52.5648L53.1753 48.6112L40.6819 36.32C43.791 32.4102 45.4808 27.5893 45.482 22.6251C45.482 10.2919 35.2821 0.25708 22.746 0.25708C10.21 0.25708 0.0100708 10.2919 0.0100708 22.6251C0.0100708 34.9583 10.21 44.9932 22.746 44.9932ZM22.746 5.84909C32.1502 5.84909 39.798 13.3731 39.798 22.6251C39.798 31.8771 32.1502 39.4012 22.746 39.4012C13.3419 39.4012 5.69406 31.8771 5.69406 22.6251C5.69406 13.3731 13.3419 5.84909 22.746 5.84909Z" fill="white"/>
</svg>
