<svg width="67" height="67" viewBox="0 0 67 67" fill="none" xmlns="http://www.w3.org/2000/svg">
<path d="M5.90178 15.4547C5.66468 15.9055 5.5557 16.4127 5.58671 16.9211C5.61772 17.4296 5.78752 17.9198 6.07766 18.3385L31.2027 54.6301C31.4607 54.9999 31.8042 55.3018 32.204 55.5103C32.6037 55.7188 33.0479 55.8277 33.4988 55.8277C33.9497 55.8277 34.3939 55.7188 34.7936 55.5103C35.1934 55.3018 35.5369 54.9999 35.7949 54.6301L60.9199 18.3385C61.2097 17.9196 61.3794 17.4295 61.4107 16.9212C61.4419 16.4128 61.3335 15.9056 61.0971 15.4545C60.8608 15.0033 60.5055 14.6254 60.0698 14.3617C59.6341 14.098 59.1345 13.9585 58.6252 13.9583H8.3752C7.86562 13.9583 7.36573 14.0976 6.92973 14.3614C6.49372 14.6252 6.13823 15.0033 5.90178 15.4547ZM53.2959 19.5417L33.5002 48.1367L13.7045 19.5417H53.2959Z" fill="white"/>
</svg>
