<svg width="67" height="67" viewBox="0 0 67 67" fill="none" xmlns="http://www.w3.org/2000/svg">
<g clip-path="url(#clip0_163_234)">
<path d="M61.0982 51.5453C61.3353 51.0945 61.4443 50.5873 61.4133 50.0789C61.3823 49.5704 61.2125 49.0802 60.9223 48.6615L35.7973 12.3699C35.5393 12.0001 35.1958 11.6982 34.796 11.4897C34.3963 11.2812 33.9521 11.1723 33.5012 11.1723C33.0503 11.1723 32.6061 11.2812 32.2064 11.4897C31.8066 11.6982 31.4631 12.0001 31.2051 12.3699L6.08005 48.6615C5.79026 49.0804 5.62056 49.5705 5.58933 50.0788C5.5581 50.5872 5.66653 51.0944 5.90289 51.5455C6.13924 51.9967 6.49451 52.3746 6.93023 52.6383C7.36594 52.902 7.8655 53.0415 8.3748 53.0417L58.6248 53.0417C59.1344 53.0417 59.6343 52.9023 60.0703 52.6386C60.5063 52.3748 60.8618 51.9967 61.0982 51.5453ZM13.7041 47.4583L33.4998 18.8633L53.2955 47.4583L13.7041 47.4583Z" fill="white"/>
<path d="M31.2052 11.3699L6.08018 47.6615C5.79039 48.0804 5.62069 48.5705 5.58946 49.0788C5.55823 49.5872 5.66667 50.0944 5.90302 50.5455C6.13938 50.9967 6.49465 51.3746 6.93036 51.6383C7.36607 51.902 7.86563 52.0415 8.37494 52.0417L58.6249 52.0417C59.1345 52.042 59.6344 51.9029 60.0705 51.6394C60.5066 51.3758 60.8623 50.998 61.099 50.5468C61.3357 50.0955 61.4444 49.5881 61.4132 49.0795C61.3821 48.5709 61.2124 48.0806 60.9225 47.6615L35.7975 11.3699C35.5394 11.0001 35.1959 10.6982 34.7962 10.4897C34.3964 10.2812 33.9522 10.1723 33.5013 10.1723C33.0505 10.1723 32.6063 10.2812 32.2065 10.4897C31.8067 10.6982 31.4632 11.0001 31.2052 11.3699Z" fill="white"/>
</g>
<defs>
<clipPath id="clip0_163_234">
<rect width="67" height="67" fill="white" transform="matrix(0 1 -1 0 67 0)"/>
</clipPath>
</defs>
</svg>
