<svg width="238" height="238" viewBox="0 0 238 238" fill="none" xmlns="http://www.w3.org/2000/svg">
<path d="M119 0.666626C87.74 1.06528 57.8725 13.6605 35.7665 35.7665C13.6606 57.8725 1.06534 87.7399 0.666687 119C0.812815 137.21 5.16005 155.142 13.3699 171.397C21.5798 187.653 33.4307 201.794 48 212.72V213.667H49.1834C69.2194 229.02 93.7577 237.341 119 237.341C144.242 237.341 168.781 229.02 188.817 213.667H190V212.72C204.569 201.794 216.42 187.653 224.63 171.397C232.84 155.142 237.187 137.21 237.333 119C236.935 87.7399 224.339 57.8725 202.234 35.7665C180.128 13.6605 150.26 1.06528 119 0.666626ZM72.495 201.005C74.2225 193.094 78.6028 186.011 84.9092 180.931C91.2156 175.852 99.069 173.081 107.167 173.078H130.833C138.931 173.081 146.784 175.852 153.091 180.931C159.397 186.011 163.778 193.094 165.505 201.005C151.41 209.298 135.354 213.671 119 213.671C102.646 213.671 86.5901 209.298 72.495 201.005ZM185.385 185.74C180.884 174.983 173.305 165.796 163.599 159.332C153.893 152.869 142.494 149.417 130.833 149.412H107.167C95.5059 149.417 84.1067 152.869 74.4011 159.332C64.6955 165.796 57.1161 174.983 52.615 185.74C43.7479 177.019 36.6862 166.636 31.8335 155.184C26.9808 143.732 24.4322 131.437 24.3334 119C24.6403 93.9882 34.7126 70.0872 52.4 52.3999C70.0873 34.7125 93.9882 24.6402 119 24.3333C144.012 24.6402 167.913 34.7125 185.6 52.3999C203.287 70.0872 213.36 93.9882 213.667 119C213.568 131.437 211.019 143.732 206.167 155.184C201.314 166.636 194.252 177.019 185.385 185.74Z" fill="white"/>
<path d="M119 48C112.744 47.8542 106.524 48.979 100.715 51.3061C94.9067 53.6332 89.6305 57.1144 85.2058 61.5391C80.7811 65.9638 77.2999 71.24 74.9728 77.0486C72.6456 82.8573 71.5209 89.0776 71.6667 95.3333C71.5209 101.589 72.6456 107.809 74.9728 113.618C77.2999 119.427 80.7811 124.703 85.2058 129.128C89.6305 133.552 94.9067 137.033 100.715 139.361C106.524 141.688 112.744 142.812 119 142.667C125.256 142.812 131.476 141.688 137.285 139.361C143.093 137.033 148.37 133.552 152.794 129.128C157.219 124.703 160.7 119.427 163.027 113.618C165.354 107.809 166.479 101.589 166.333 95.3333C166.479 89.0776 165.354 82.8573 163.027 77.0486C160.7 71.24 157.219 65.9638 152.794 61.5391C148.37 57.1144 143.093 53.6332 137.285 51.3061C131.476 48.979 125.256 47.8542 119 48ZM119 119C115.852 119.152 112.706 118.644 109.766 117.509C106.826 116.373 104.156 114.635 101.927 112.406C99.6981 110.178 97.9601 107.507 96.8246 104.567C95.6891 101.627 95.1811 98.4816 95.3333 95.3333C95.1811 92.185 95.6891 89.0398 96.8246 86.0995C97.9601 83.1592 99.6981 80.4889 101.927 78.2601C104.156 76.0314 106.826 74.2934 109.766 73.1579C112.706 72.0224 115.852 71.5144 119 71.6666C122.148 71.5144 125.294 72.0224 128.234 73.1579C131.174 74.2934 133.844 76.0314 136.073 78.2601C138.302 80.4889 140.04 83.1592 141.175 86.0995C142.311 89.0398 142.819 92.185 142.667 95.3333C142.819 98.4816 142.311 101.627 141.175 104.567C140.04 107.507 138.302 110.178 136.073 112.406C133.844 114.635 131.174 116.373 128.234 117.509C125.294 118.644 122.148 119.152 119 119Z" fill="white"/>
</svg>
