<svg width="53" height="52" viewBox="0 0 53 52" fill="none" xmlns="http://www.w3.org/2000/svg">
<path d="M51.9069 15.7449C51.8782 13.5892 51.4746 11.4548 50.7142 9.43736C50.0549 7.73566 49.0478 6.19021 47.7573 4.89975C46.4669 3.6093 44.9214 2.60222 43.2197 1.94285C41.2282 1.19527 39.1243 0.791038 36.9976 0.747371C34.2593 0.624977 33.3912 0.59082 26.4403 0.59082C19.4895 0.59082 18.5986 0.590821 15.8803 0.747371C13.7545 0.791359 11.6515 1.19558 9.66094 1.94285C7.95897 2.60176 6.41328 3.60868 5.12276 4.89919C3.83225 6.18971 2.82533 7.73539 2.16642 9.43736C1.41734 11.4274 1.01399 13.5308 0.973789 15.6567C0.851395 18.3978 0.814392 19.2659 0.814392 26.2168C0.814392 33.1676 0.814392 34.0557 0.973789 36.7768C1.01648 38.9059 1.41782 41.0065 2.16642 43.0019C2.82643 44.7033 3.8341 46.2484 5.12505 47.5383C6.416 48.8283 7.96183 49.8348 9.66378 50.4935C11.6489 51.2711 13.7522 51.7043 15.8831 51.7744C18.6242 51.8968 19.4923 51.9338 26.4432 51.9338C33.394 51.9338 34.285 51.9338 37.0032 51.7744C39.1299 51.7325 41.234 51.3292 43.2254 50.5818C44.9267 49.9216 46.4717 48.9143 47.7621 47.6239C49.0525 46.3336 50.0598 44.7885 50.7199 43.0872C51.4685 41.0948 51.8699 38.9942 51.9126 36.8622C52.035 34.124 52.072 33.2559 52.072 26.3022C52.0663 19.3513 52.0663 18.4689 51.9069 15.7449ZM26.4233 39.3613C19.1536 39.3613 13.2644 33.4722 13.2644 26.2025C13.2644 18.9329 19.1536 13.0437 26.4233 13.0437C29.9132 13.0437 33.2602 14.4301 35.7279 16.8979C38.1957 19.3656 39.5821 22.7126 39.5821 26.2025C39.5821 29.6925 38.1957 33.0395 35.7279 35.5072C33.2602 37.975 29.9132 39.3613 26.4233 39.3613ZM40.1058 15.6254C39.7027 15.6258 39.3036 15.5467 38.9311 15.3926C38.5587 15.2385 38.2203 15.0125 37.9353 14.7275C37.6503 14.4425 37.4243 14.1041 37.2702 13.7317C37.1161 13.3592 37.037 12.96 37.0374 12.557C37.0374 12.1542 37.1167 11.7554 37.2709 11.3833C37.425 11.0112 37.6509 10.6731 37.9357 10.3883C38.2205 10.1035 38.5586 9.87761 38.9307 9.72348C39.3028 9.56935 39.7016 9.49002 40.1044 9.49002C40.5071 9.49002 40.9059 9.56935 41.278 9.72348C41.6502 9.87761 41.9883 10.1035 42.2731 10.3883C42.5578 10.6731 42.7838 11.0112 42.9379 11.3833C43.092 11.7554 43.1713 12.1542 43.1713 12.557C43.1713 14.2534 41.7994 15.6254 40.1058 15.6254Z" fill="white"/>
<path d="M26.4233 34.7506C31.1441 34.7506 34.971 30.9237 34.971 26.2029C34.971 21.4822 31.1441 17.6553 26.4233 17.6553C21.7026 17.6553 17.8757 21.4822 17.8757 26.2029C17.8757 30.9237 21.7026 34.7506 26.4233 34.7506Z" fill="white"/>
</svg>
