<svg width="53" height="43" viewBox="0 0 53 43" fill="none" xmlns="http://www.w3.org/2000/svg">
<path d="M46.8059 10.9968C46.8398 11.4532 46.8398 11.907 46.8398 12.3609C46.8398 26.2499 36.2685 42.2542 16.9491 42.2542C10.997 42.2542 5.46753 40.5301 0.814392 37.5358C1.65947 37.6323 2.47325 37.6662 3.35223 37.6662C8.08099 37.6777 12.6758 36.0964 16.3962 33.1774C14.2037 33.1377 12.0784 32.4144 10.3169 31.1084C8.55546 29.8024 7.2458 27.9789 6.57083 25.8926C7.22028 25.9891 7.87235 26.0543 8.55572 26.0543C9.4973 26.0543 10.4441 25.9239 11.3231 25.6969C8.94372 25.2165 6.8042 23.9268 5.26831 22.0471C3.73242 20.1675 2.89498 17.8138 2.89839 15.3865V15.2561C4.29903 16.0359 5.92398 16.5237 7.64543 16.5889C6.20329 15.6306 5.02079 14.3302 4.20341 12.8037C3.38603 11.2773 2.9592 9.57227 2.96099 7.84077C2.96099 5.88979 3.48004 4.10052 4.39032 2.54078C7.03024 5.78812 10.3228 8.44474 14.0548 10.3386C17.7868 12.2324 21.875 13.3213 26.0545 13.5346C25.8928 12.7521 25.7937 11.941 25.7937 11.1272C25.793 9.7473 26.0643 8.38083 26.5921 7.10586C27.1198 5.8309 27.8936 4.67244 28.8694 3.69673C29.8451 2.72101 31.0035 1.94716 32.2785 1.41943C33.5535 0.89169 34.9199 0.620409 36.2998 0.621095C39.3254 0.621095 42.0562 1.88871 43.9759 3.9388C46.328 3.48397 48.5835 2.62534 50.6426 1.40097C49.8586 3.82878 48.2163 5.88745 46.0234 7.19131C48.1095 6.95338 50.1482 6.40479 52.072 5.56375C50.6352 7.65844 48.8547 9.4953 46.8059 10.9968Z" fill="white"/>
</svg>
