<svg width="49" height="50" viewBox="0 0 49 50" fill="none" xmlns="http://www.w3.org/2000/svg">
<path fill-rule="evenodd" clip-rule="evenodd" d="M41.5353 7.65888C39.3101 5.41904 36.6626 3.64302 33.7461 2.4337C30.8295 1.22439 27.7021 0.605822 24.5448 0.613847C11.3056 0.613847 0.527987 11.3888 0.522636 24.6333C0.522636 28.8662 1.62769 32.9975 3.72809 36.6417L0.32196 49.0863L13.0555 45.7444C16.5777 47.6617 20.5238 48.6671 24.5341 48.6689H24.5448C37.7813 48.6689 48.5589 37.894 48.5643 24.6494C48.5734 21.4934 47.9569 18.3669 46.7504 15.4506C45.5439 12.5343 43.7714 9.88604 41.5353 7.65888ZM24.5448 44.6152H24.5368C20.9608 44.6156 17.4506 43.6535 14.3746 41.8299L13.6468 41.3964L6.0907 43.3791L8.10548 36.013L7.63189 35.2584C5.6326 32.0755 4.57422 28.3921 4.57895 24.6333C4.5843 13.6256 13.5398 4.67016 24.5528 4.67016C27.1757 4.66433 29.7736 5.17876 32.1963 6.18366C34.619 7.18856 36.8183 8.66398 38.667 10.5245C40.5256 12.3762 41.9987 14.5779 43.0013 17.0023C44.0038 19.4268 44.5159 22.0259 44.508 24.6494C44.5026 35.6571 35.5472 44.6152 24.5448 44.6152ZM35.4963 29.6609C34.8943 29.3586 31.9457 27.9084 31.3945 27.7077C30.846 27.507 30.4473 27.408 30.046 28.0074C29.6446 28.6067 28.4941 29.9579 28.1436 30.3593C27.7931 30.7606 27.4425 30.8088 26.8432 30.5091C26.2438 30.2094 24.3093 29.5753 22.0163 27.5311C20.2316 25.9391 19.0276 23.9751 18.6771 23.3731C18.3265 22.7711 18.6396 22.4473 18.9419 22.1476C19.2122 21.8801 19.5413 21.4466 19.841 21.0961C20.1406 20.7456 20.2396 20.4967 20.4403 20.0954C20.641 19.694 20.542 19.3435 20.3895 19.0439C20.2396 18.7415 19.0383 15.7876 18.5379 14.5862C18.0536 13.4223 17.5586 13.5775 17.1894 13.5614C16.807 13.5458 16.4243 13.5386 16.0415 13.54C15.7372 13.5478 15.4377 13.6183 15.1619 13.7472C14.8861 13.8762 14.6399 14.0607 14.4388 14.2892C13.8876 14.8912 12.3384 16.3414 12.3384 19.2954C12.3384 22.2493 14.4896 25.1043 14.7893 25.5056C15.089 25.907 19.0222 31.9673 25.0425 34.5681C26.4766 35.1862 27.5951 35.5554 28.4647 35.8337C29.9015 36.2912 31.2099 36.2243 32.2454 36.0718C33.3986 35.9006 35.796 34.6216 36.2963 33.2196C36.7967 31.8175 36.7967 30.6161 36.6469 30.3646C36.497 30.1131 36.093 29.9606 35.4963 29.6609Z" fill="white"/>
</svg>
